{"title":"The Block - S12E29 - Kitchen Week Begins","uid":16004948,"size":395595799,"categoryP":"video","categoryS":"tv_shows","magnet":"?xt=urn:btih:c329c0b0a6ef1eac1ae7013cd5c18ef124a3548f&amp;dn=The+Block+-+S12E29+-+Kitchen+Week+Begins&amp;tr=udp%3A%2F%2Ftracker.leechers-paradise.org%3A6969&amp;tr=udp%3A%2F%2Fzer0day.ch%3A1337&amp;tr=udp%3A%2F%2Fopen.demonii.com%3A1337&amp;tr=udp%3A%2F%2Ftracker.coppersurfer.tk%3A6969&amp;tr=udp%3A%2F%2Fexodus.desync.com%3A6969","seeders":8,"leechers":1,"uploader":"Bullrout","files":1,"time":1476166642,"description":"The Block - S12E29 - Kitchen Week Begins\r\n\r\nAfter inspecting each other's hallways, laundries and powder rooms, friendships fracture. Attention quickly turns to kitchens and Keith and Dan call a meeting to ensure that all the kitchens are completed this week.\r\n\r\nComplete name : The Block - S12E29 - Kitchen Week Begins.mp4\r\nFormat : MPEG-4\r\nFormat profile : Base Media / Version 2\r\nCodec ID : mp42 (mp42/isom/avc1)\r\nFile size : 377 MiB\r\nDuration : 47 min 39 s\r\nOverall bit rate mode : Variable\r\nOverall bit rate : 1 107 kb/s\r\n\r\nID : 2\r\nFormat : AVC\r\nFormat/Info : Advanced Video Codec\r\nFormat profile :   \r\nFormat settings, CABAC : Yes\r\nFormat settings, ReFrames : 3 frames\r\nCodec ID : avc1\r\nCodec ID/Info : Advanced Video Coding\r\nDuration : 47 min 39 s\r\nBit rate mode : Variable\r\nBit rate : 975 kb/s\r\nMaximum bit rate : 1 000 kb/s\r\nWidth : 720 pixels\r\nHeight : 404 pixels\r\nDisplay aspect ratio : 16:9\r\nOriginal display aspect ratio : 16:9\r\nFrame rate mode : Constant\r\nFrame rate : 25.000 FPS\r\nStandard : PAL\r\nColor space : YUV\r\nChroma subsampling : 4:2:0\r\nBit depth : 8 bits\r\nScan type : Progressive\r\nBits/(Pixel*Frame) : 0.134\r\nStream size : 332 MiB (88%)\r\nWriting library : x264 core 112\r\nColor range : Limited\r\nColor primaries : BT.601 PAL\r\nTransfer characteristics : BT.470 System B, BT.470 System G\r\nMatrix coefficients : BT.601\r\n\r\nAudio\r\nID : 1\r\nFormat : AAC\r\nFormat/Info : Advanced Audio Codec\r\nFormat profile : LC\r\nCodec ID : 40\r\nDuration : 47 min 39 s\r\nBit rate mode : Variable\r\nBit rate : 128 kb/s\r\nMaximum bit rate : 576 kb/s\r\nChannel(s) : 2 channels\r\nChannel positions : Front: L R\r\nSampling rate : 48.0 kHz\r\nFrame rate : 46.875 FPS (1024 spf)\r\nCompression mode : Lossy\r\nStream size : 43.6 MiB (12%)","torrent":{"xt":"urn:btih:c329c0b0a6ef1eac1ae7013cd5c18ef124a3548f","amp;dn":"The+Block+-+S12E29+-+Kitchen+Week+Begins","amp;tr":["udp%3A%2F%2Ftracker.leechers-paradise.org%3A6969","udp%3A%2F%2Fzer0day.ch%3A1337","udp%3A%2F%2Fopen.demonii.com%3A1337","udp%3A%2F%2Ftracker.coppersurfer.tk%3A6969","udp%3A%2F%2Fexodus.desync.com%3A6969"],"infoHash":"c329c0b0a6ef1eac1ae7013cd5c18ef124a3548f","infoHashBuffer":{"type":"Buffer","data":[195,41,192,176,166,239,30,172,26,231,1,60,213,193,142,241,36,163,84,143]},"announce":[],"urlList":[]}}